# xmcd
#
# Track frame offsets:
#	150
#	25310
#	44017
#	66842
#	95850
#	113997
#	138705
#	160027
#	190600
#	217992
#
# Disc length: 3104 seconds
#
# Revision: 1
# Processed by: cddbd v1.5.2PL0 Copyright (c) Steve Scherf et al.
# Submitted via: EZCDAudioConverter 8.0.2.1
#
DISCID=920c1e0a
DTITLE=Ngọc Sơn - Nỗi Buồn Hoa Phượng
DYEAR=1993
DGENRE=blues
TTITLE0=Những giọt mưa sầu
TTITLE1=Tình khcus chiều mưa
TTITLE2=Chuyện hợp tan
TTITLE3=Hoa mười giờ
TTITLE4=Phượng buồn
TTITLE5=Vầng trán suy tư
TTITLE6=Nỗi Buồn Hoa Phượng
TTITLE7=Lưu bút ngày xanh
TTITLE8=Giận hờn
TTITLE9=Yêu nhau dài lâu
EXTD=
EXTT0=
EXTT1=
EXTT2=
EXTT3=
EXTT4=
EXTT5=
EXTT6=
EXTT7=
EXTT8=
EXTT9=
PLAYORDER=
